PathFileType	4	(X/Y/Z)	C:\Users\WrightLab\Desktop\Jo\P5V119.trc
DataRate	CameraRate	NumFrames	NumMarkers	Units	OrigDataRate	OrigDataStartFrame	OrigNumFrames
100.00	100.00	       10	19	mm	100.00	498	       569
Frame#	Time	Headset_Front			Headset_Back			Headset_Left			Headset_Right			Left_Shoulder			Right_Shoulder			Sternum			C7			Left Elbow			Right Elbow			Left Wrist			Right Wrist			Left ASIS			Right ASIS			S2			Left Knee			Right Knee			Left Ankle			Right Ankle			
		X1	Y1	Z1	X2	Y2	Z2	X3	Y3	Z3	X4	Y4	Z4	X5	Y5	Z5	X6	Y6	Z6	X7	Y7	Z7	X8	Y8	Z8	X9	Y9	Z9	X10	Y10	Z10	X11	Y11	Z11	X12	Y12	Z12	X13	Y13	Z13	X14	Y14	Z14	X15	Y15	Z15	X16	Y16	Z16	X17	Y17	Z17	X18	Y18	Z18	X19	Y19	Z19	

498	4.970	-120.67066	1624.41968	1881.95129	96.30142	1249.35693	2103.92212							234.57204	1541.60962	1991.79053				31.34238	1368.40173	1870.60828	53.77574	1722.21387	1949.71582	308.21030	1274.98743	2062.55713	93.99210	1236.44641	1518.43835				-73.29168	1080.86023	1592.21008	133.71477	975.62921	1993.18018				324.62943	1010.65082	1761.61951	274.13882	538.06226	1941.84045	4.43499	557.32465	1870.94702	438.09491	173.01483	1749.95496	90.57855	137.65070	1950.47534	
499	4.980	-126.28512	1623.90649	1884.20166	88.69725	1249.07227	2109.37891							228.58893	1540.81934	1997.27856				25.39689	1366.74805	1874.32520	47.80222	1722.39990	1954.48425	300.93341	1273.68835	2068.49097	92.65108	1234.32898	1523.30371				-75.03115	1077.73401	1596.49573	125.75819	974.82599	1998.04102				320.12717	1007.67480	1771.61218	266.90872	536.13214	1953.28503	1.25749	553.62195	1879.50867	436.59869	177.70552	1755.33069	90.15919	137.71616	1951.10645	
500	4.990	-131.86813	1623.52307	1886.71826	80.67106	1248.13818	2114.58594							222.80531	1540.83069	2002.92432				20.50764	1367.30933	1879.51099	41.91753	1722.66187	1957.35791	293.17676	1272.03711	2074.71606	90.13707	1232.32446	1528.49487				-76.87636	1076.59241	1598.15222	117.60369	974.71124	2003.87976				315.74857	1005.87067	1779.74854	258.70801	534.72156	1966.79834	-3.18870	550.70453	1886.66943	433.69827	185.55661	1761.20874	89.93034	138.03955	1951.44214	
501	5.000	-136.77864	1623.08447	1889.03796	72.49802	1247.49023	2120.07202							217.72517	1542.01233	2009.55042				15.26316	1367.49463	1882.84570	35.56261	1723.10950	1960.16565	285.56772	1270.98413	2079.24194	89.71413	1231.89819	1534.47034				-78.72007	1073.34851	1601.17017	109.57693	975.63031	2009.54907				312.01172	1004.65344	1788.09326	249.24989	533.40942	1980.87256	-11.01606	550.84552	1892.81702	430.00494	193.02092	1768.38367	89.36161	138.00827	1952.30090	
502	5.010	-142.31964	1623.42529	1891.91711	64.71839	1246.89539	2124.37915							211.88342	1542.78406	2014.41064				10.77122	1368.18628	1888.22913	28.99985	1723.89709	1963.85388	277.57431	1271.92834	2085.98340	88.18246	1231.46851	1540.25220				-81.63991	1072.43945	1605.32434	101.44465	976.31018	2015.80420				309.07614	1003.01099	1799.07373	237.93329	531.86078	1997.03186	-17.28398	550.68793	1895.93616	424.61636	201.00967	1779.26074	88.01064	137.97583	1950.95935	
503	5.020	-147.39433	1623.77112	1894.26086	56.96844	1246.26855	2128.36450							205.72815	1543.89539	2020.70605				5.41624	1368.66248	1891.41882	23.77115	1724.36597	1967.65710	270.37714	1271.93982	2091.64478	86.55265	1231.24463	1545.58105				-82.25855	1071.87134	1605.61536	93.24036	977.85547	2021.36499				305.23795	1002.91705	1805.54553	227.12070	529.68390	2012.03699	-24.22643	552.57178	1899.07117	419.08075	208.80261	1790.48254	87.07347	138.22861	1950.84277	
504	5.030	-152.37593	1624.05298	1896.40283	48.69128	1245.58960	2133.26465							199.28888	1545.08398	2027.18579				0.55803	1369.80725	1896.97437	18.57807	1724.97729	1970.35840	262.82968	1272.31226	2096.01929	84.68899	1231.31836	1551.33337				-84.20146	1070.73071	1608.32568	84.88111	978.80872	2026.79578				301.34732	1003.32379	1812.04431	215.26050	529.02600	2029.67773	-31.14743	555.47827	1902.52002	412.51871	217.50182	1804.08276	86.29295	137.78064	1952.03198	
505	5.040	-157.10600	1624.46118	1899.60010	41.23478	1245.34644	2136.96704							192.88063	1546.30530	2032.49744				-4.73026	1369.89612	1899.45386	12.91529	1725.15735	1973.21985	255.06110	1273.14624	2102.89429	84.61687	1231.35535	1559.17969				-85.29852	1069.93921	1614.32910	76.92719	979.57349	2032.23694				297.80563	1003.90442	1819.10339	202.88680	528.19763	2046.63318	-37.52774	557.81335	1903.35461	405.92096	225.51886	1816.80359	85.85550	137.52287	1952.69873	
506	5.050	-161.89067	1624.86218	1901.04822	33.58007	1244.96082	2140.47900							186.19391	1547.63245	2039.71741				-9.76456	1370.62512	1904.76648	7.66052	1726.22937	1977.13135	248.60019	1272.97827	2107.82300	83.81738	1231.32874	1564.52710				-86.53866	1069.78174	1615.64014	69.19337	979.64612	2037.70972				295.42184	1004.85742	1823.55762	188.90720	528.65955	2064.59546	-43.00626	558.35071	1904.49109	400.87045	235.24370	1831.36084	85.25466	138.33556	1952.05798	
507	5.060	-166.71788	1625.91809	1902.01794	25.95102	1245.26184	2144.63892							179.28680	1547.99084	2045.10498				-14.84893	1370.75000	1907.60596	2.06927	1727.26038	1980.20776	240.99991	1273.29248	2114.72192	83.72121	1230.91504	1569.45764				-88.04771	1069.69739	1617.23792	62.46097	980.97479	2043.66406				290.65921	1005.70374	1830.92102	176.37141	529.48621	2080.17163	-49.27571	560.57770	1905.49036	395.05939	242.74471	1842.00952	85.13092	138.45596	1952.24060	
